<svg width="169" height="129" viewBox="0 0 169 129" fill="none" xmlns="http://www.w3.org/2000/svg">
<path d="M38.5653 5.49964C38.5653 4.43293 38.7824 3.50265 39.2165 2.70882C39.6507 1.90258 40.2522 1.28239 41.0213 0.848265C41.7903 0.401733 42.6709 0.178467 43.6632 0.178467C44.9408 0.178467 45.9951 0.500962 46.8262 1.14595C47.6696 1.77854 48.234 2.6716 48.5193 3.82515H45.7098C45.561 3.37861 45.3067 3.03131 44.947 2.78324C44.5997 2.52276 44.1656 2.39252 43.6446 2.39252C42.9004 2.39252 42.3112 2.6654 41.8771 3.21116C41.443 3.74452 41.2259 4.50735 41.2259 5.49964C41.2259 6.47953 41.443 7.24236 41.8771 7.78812C42.3112 8.32148 42.9004 8.58815 43.6446 8.58815C44.6989 8.58815 45.3873 8.11681 45.7098 7.17414H48.5193C48.234 8.29047 47.6696 9.17733 46.8262 9.83472C45.9827 10.4921 44.9284 10.8208 43.6632 10.8208C42.6709 10.8208 41.7903 10.6038 41.0213 10.1696C40.2522 9.72309 39.6507 9.10291 39.2165 8.30907C38.7824 7.50283 38.5653 6.56636 38.5653 5.49964Z" fill="#F8D422"/>
<path d="M52.6602 1.94599C52.9951 1.40023 53.4292 0.972302 53.9625 0.66221C54.5083 0.352118 55.1285 0.197072 55.8231 0.197072V2.93208H55.1347C54.3161 2.93208 53.6959 3.12434 53.2741 3.50885C52.8648 3.89337 52.6602 4.56316 52.6602 5.51825V10.6534H50.0554V0.345916H52.6602V1.94599Z" fill="#F8D422"/>
<path d="M66.7873 5.27637C66.7873 5.64848 66.7625 5.98338 66.7128 6.28107H59.1776C59.2396 7.02529 59.5001 7.60826 59.959 8.02999C60.418 8.45171 60.9823 8.66258 61.6521 8.66258C62.6196 8.66258 63.308 8.24705 63.7174 7.41601H66.5268C66.2291 8.4083 65.6585 9.22694 64.8151 9.87193C63.9716 10.5045 62.9359 10.8208 61.708 10.8208C60.7157 10.8208 59.8226 10.6038 59.0288 10.1696C58.2473 9.72309 57.6334 9.0967 57.1868 8.29047C56.7527 7.48423 56.5356 6.55395 56.5356 5.49964C56.5356 4.43293 56.7527 3.49645 57.1868 2.69021C57.621 1.88397 58.2287 1.26379 59.0102 0.82966C59.7916 0.395531 60.6909 0.178467 61.708 0.178467C62.6878 0.178467 63.5623 0.389329 64.3313 0.811054C65.1128 1.23278 65.7143 1.83436 66.1361 2.61579C66.5702 3.38482 66.7873 4.27168 66.7873 5.27637ZM64.0895 4.53215C64.0771 3.86236 63.8352 3.329 63.3639 2.93208C62.8925 2.52276 62.3157 2.3181 61.6335 2.3181C60.9885 2.3181 60.4428 2.51656 59.9963 2.91348C59.5621 3.29799 59.2954 3.83755 59.1962 4.53215H64.0895Z" fill="#F8D422"/>
<path d="M72.2608 10.8208C71.4173 10.8208 70.6607 10.672 69.9909 10.3743C69.3211 10.0642 68.7877 9.64867 68.3908 9.12771C68.0063 8.60676 67.7954 8.02999 67.7582 7.3974H70.3816C70.4312 7.79432 70.6235 8.12302 70.9584 8.38349C71.3057 8.64397 71.7336 8.77421 72.2422 8.77421C72.7383 8.77421 73.1228 8.67498 73.3957 8.47652C73.681 8.27806 73.8236 8.02379 73.8236 7.7137C73.8236 7.3788 73.65 7.13072 73.3027 6.96948C72.9678 6.79582 72.4282 6.60977 71.684 6.41131C70.915 6.22526 70.2824 6.033 69.7862 5.83454C69.3025 5.63608 68.8808 5.33219 68.5211 4.92287C68.1738 4.51355 68.0001 3.96159 68.0001 3.26698C68.0001 2.69641 68.1614 2.17546 68.4839 1.70412C68.8188 1.23278 69.2901 0.860668 69.8979 0.587788C70.5181 0.314907 71.2437 0.178467 72.0747 0.178467C73.3027 0.178467 74.2826 0.488559 75.0144 1.10874C75.7462 1.71652 76.1493 2.54137 76.2237 3.58327H73.7306C73.6934 3.17395 73.5197 2.85146 73.2097 2.61579C72.912 2.36771 72.5088 2.24368 72.0003 2.24368C71.5289 2.24368 71.163 2.3305 70.9026 2.50415C70.6545 2.67781 70.5305 2.91968 70.5305 3.22977C70.5305 3.57707 70.7041 3.84375 71.0514 4.02981C71.3987 4.20346 71.9383 4.38331 72.6701 4.56937C73.4143 4.75542 74.0283 4.94768 74.512 5.14614C74.9958 5.3446 75.4113 5.65469 75.7586 6.07641C76.1183 6.48573 76.3044 7.03149 76.3168 7.7137C76.3168 8.30907 76.1493 8.84243 75.8144 9.31377C75.4919 9.78511 75.0206 10.1572 74.4004 10.4301C73.7926 10.6906 73.0794 10.8208 72.2608 10.8208Z" fill="#F8D422"/>
<path d="M82.4923 8.58815C83.5467 8.58815 84.2351 8.11681 84.5576 7.17414H87.367C87.1065 8.17883 86.6228 8.99748 85.9158 9.63006C85.2212 10.2626 84.3467 10.641 83.2924 10.765V11.4906C83.9746 11.4906 84.5452 11.6643 85.0041 12.0116C85.4754 12.3589 85.7111 12.8612 85.7111 13.5186C85.7111 14.1884 85.4692 14.7032 84.9855 15.0629C84.5141 15.4226 83.9312 15.6024 83.2366 15.6024H80.5946V14.0768H82.8086C83.1063 14.0768 83.3296 14.0334 83.4784 13.9465C83.6397 13.8597 83.7203 13.7047 83.7203 13.4814C83.7203 13.2581 83.6397 13.1031 83.4784 13.0163C83.3296 12.9418 83.1063 12.9046 82.8086 12.9046H81.6551V10.765C80.8116 10.641 80.0674 10.3495 79.4224 9.89054C78.7899 9.4192 78.2937 8.81142 77.934 8.0672C77.5867 7.31058 77.413 6.45472 77.413 5.49964C77.413 4.43293 77.6301 3.50265 78.0642 2.70882C78.4984 1.90258 79.0999 1.28239 79.869 0.848265C80.638 0.401733 81.5187 0.178467 82.511 0.178467C83.7885 0.178467 84.8428 0.500962 85.6739 1.14595C86.5173 1.77854 87.0817 2.6716 87.367 3.82515H84.5576C84.4087 3.37861 84.1544 3.03131 83.7947 2.78324C83.4474 2.52276 83.0133 2.39252 82.4923 2.39252C81.7481 2.39252 81.159 2.6654 80.7248 3.21116C80.2907 3.74452 80.0736 4.50735 80.0736 5.49964C80.0736 6.47953 80.2907 7.24236 80.7248 7.78812C81.159 8.32148 81.7481 8.58815 82.4923 8.58815Z" fill="#F8D422"/>
<path d="M88.2333 5.46243C88.2333 4.42052 88.438 3.49645 88.8473 2.69021C89.269 1.88397 89.8334 1.26379 90.5404 0.82966C91.2598 0.395531 92.0598 0.178467 92.9405 0.178467C93.7095 0.178467 94.3793 0.333513 94.9499 0.643604C95.5329 0.953696 95.998 1.34441 96.3453 1.81575V0.345916H98.9687V10.6534H96.3453V9.14632C96.0104 9.63006 95.5453 10.0332 94.9499 10.3557C94.3669 10.6658 93.6909 10.8208 92.9219 10.8208C92.0536 10.8208 91.2598 10.5975 90.5404 10.151C89.8334 9.70448 89.269 9.0781 88.8473 8.27186C88.438 7.45322 88.2333 6.51674 88.2333 5.46243ZM96.3453 5.49964C96.3453 4.86705 96.2213 4.32749 95.9732 3.88096C95.7251 3.42203 95.3902 3.07472 94.9685 2.83905C94.5468 2.59098 94.094 2.46694 93.6103 2.46694C93.1266 2.46694 92.68 2.58478 92.2707 2.82045C91.8614 3.05612 91.5265 3.40342 91.266 3.86236C91.0179 4.30889 90.8939 4.84225 90.8939 5.46243C90.8939 6.08261 91.0179 6.62837 91.266 7.09971C91.5265 7.55865 91.8614 7.91215 92.2707 8.16023C92.6924 8.4083 93.139 8.53234 93.6103 8.53234C94.094 8.53234 94.5468 8.4145 94.9685 8.17883C95.3902 7.93076 95.7251 7.58346 95.9732 7.13692C96.2213 6.67799 96.3453 6.13223 96.3453 5.49964Z" fill="#F8D422"/>
<path d="M114.784 5.27637C114.784 5.64848 114.759 5.98338 114.709 6.28107H107.174C107.236 7.02529 107.496 7.60826 107.955 8.02999C108.414 8.45171 108.979 8.66258 109.649 8.66258C110.616 8.66258 111.304 8.24705 111.714 7.41601H114.523C114.225 8.4083 113.655 9.22694 112.811 9.87193C111.968 10.5045 110.932 10.8208 109.704 10.8208C108.712 10.8208 107.819 10.6038 107.025 10.1696C106.244 9.72309 105.63 9.0967 105.183 8.29047C104.749 7.48423 104.532 6.55395 104.532 5.49964C104.532 4.43293 104.749 3.49645 105.183 2.69021C105.617 1.88397 106.225 1.26379 107.007 0.82966C107.788 0.395531 108.687 0.178467 109.704 0.178467C110.684 0.178467 111.559 0.389329 112.328 0.811054C113.109 1.23278 113.711 1.83436 114.132 2.61579C114.567 3.38482 114.784 4.27168 114.784 5.27637ZM112.086 4.53215C112.073 3.86236 111.832 3.329 111.36 2.93208C110.889 2.52276 110.312 2.3181 109.63 2.3181C108.985 2.3181 108.439 2.51656 107.993 2.91348C107.559 3.29799 107.292 3.83755 107.193 4.53215H112.086Z" fill="#F8D422"/>
<path d="M46.6878 25.6184C46.6878 24.5765 46.8925 23.6524 47.3018 22.8462C47.7235 22.0399 48.2879 21.4197 48.9949 20.9856C49.7143 20.5515 50.5143 20.3344 51.395 20.3344C52.164 20.3344 52.8338 20.4895 53.4044 20.7996C53.9874 21.1097 54.4525 21.5004 54.7998 21.9717V20.5019H57.4232V30.8093H54.7998V29.3023C54.4649 29.786 53.9998 30.1891 53.4044 30.5116C52.8214 30.8217 52.1454 30.9768 51.3764 30.9768C50.5081 30.9768 49.7143 30.7535 48.9949 30.307C48.2879 29.8604 47.7235 29.2341 47.3018 28.4278C46.8925 27.6092 46.6878 26.6727 46.6878 25.6184ZM54.7998 25.6556C54.7998 25.023 54.6758 24.4835 54.4277 24.0369C54.1796 23.578 53.8447 23.2307 53.423 22.995C53.0013 22.7469 52.5485 22.6229 52.0648 22.6229C51.581 22.6229 51.1345 22.7407 50.7252 22.9764C50.3159 23.2121 49.981 23.5594 49.7205 24.0183C49.4724 24.4648 49.3484 24.9982 49.3484 25.6184C49.3484 26.2386 49.4724 26.7843 49.7205 27.2557C49.981 27.7146 50.3159 28.0681 50.7252 28.3162C51.1469 28.5643 51.5934 28.6883 52.0648 28.6883C52.5485 28.6883 53.0013 28.5705 53.423 28.3348C53.8447 28.0867 54.1796 27.7394 54.4277 27.2929C54.6758 26.834 54.7998 26.2882 54.7998 25.6556Z" fill="#F8D422"/>
<path d="M62.1998 21.9903C62.5347 21.519 62.9937 21.1283 63.5766 20.8182C64.172 20.4957 64.848 20.3344 65.6046 20.3344C66.4853 20.3344 67.2791 20.5515 67.9862 20.9856C68.7056 21.4197 69.2699 22.0399 69.6793 22.8462C70.101 23.64 70.3118 24.5641 70.3118 25.6184C70.3118 26.6727 70.101 27.6092 69.6793 28.4278C69.2699 29.2341 68.7056 29.8604 67.9862 30.307C67.2791 30.7535 66.4853 30.9768 65.6046 30.9768C64.848 30.9768 64.1782 30.8217 63.5953 30.5116C63.0247 30.2015 62.5595 29.8108 62.1998 29.3395V35.7212H59.5951V20.5019H62.1998V21.9903ZM67.6513 25.6184C67.6513 24.9982 67.521 24.4648 67.2605 24.0183C67.0125 23.5594 66.6776 23.2121 66.2558 22.9764C65.8465 22.7407 65.4 22.6229 64.9162 22.6229C64.4449 22.6229 63.9984 22.7469 63.5766 22.995C63.1673 23.2307 62.8324 23.578 62.572 24.0369C62.3239 24.4959 62.1998 25.0354 62.1998 25.6556C62.1998 26.2758 62.3239 26.8153 62.572 27.2743C62.8324 27.7332 63.1673 28.0867 63.5766 28.3348C63.9984 28.5705 64.4449 28.6883 64.9162 28.6883C65.4 28.6883 65.8465 28.5643 66.2558 28.3162C66.6776 28.0681 67.0125 27.7146 67.2605 27.2557C67.521 26.7967 67.6513 26.251 67.6513 25.6184Z" fill="#F8D422"/>
<path d="M71.1628 25.6184C71.1628 24.5765 71.3674 23.6524 71.7767 22.8462C72.1985 22.0399 72.7628 21.4197 73.4698 20.9856C74.1892 20.5515 74.9893 20.3344 75.8699 20.3344C76.639 20.3344 77.3088 20.4895 77.8793 20.7996C78.4623 21.1097 78.9274 21.5004 79.2748 21.9717V20.5019H81.8981V30.8093H79.2748V29.3023C78.9399 29.786 78.4747 30.1891 77.8793 30.5116C77.2964 30.8217 76.6204 30.9768 75.8513 30.9768C74.9831 30.9768 74.1892 30.7535 73.4698 30.307C72.7628 29.8604 72.1985 29.2341 71.7767 28.4278C71.3674 27.6092 71.1628 26.6727 71.1628 25.6184ZM79.2748 25.6556C79.2748 25.023 79.1507 24.4835 78.9026 24.0369C78.6546 23.578 78.3197 23.2307 77.8979 22.995C77.4762 22.7469 77.0235 22.6229 76.5397 22.6229C76.056 22.6229 75.6095 22.7407 75.2001 22.9764C74.7908 23.2121 74.4559 23.5594 74.1954 24.0183C73.9474 24.4648 73.8233 24.9982 73.8233 25.6184C73.8233 26.2386 73.9474 26.7843 74.1954 27.2557C74.4559 27.7146 74.7908 28.0681 75.2001 28.3162C75.6219 28.5643 76.0684 28.6883 76.5397 28.6883C77.0235 28.6883 77.4762 28.5705 77.8979 28.3348C78.3197 28.0867 78.6546 27.7394 78.9026 27.2929C79.1507 26.834 79.2748 26.2882 79.2748 25.6556Z" fill="#F8D422"/>
<path d="M86.6748 22.102C87.0097 21.5562 87.4438 21.1283 87.9772 20.8182C88.5229 20.5081 89.1431 20.353 89.8377 20.353V23.088H89.1493C88.3307 23.088 87.7105 23.2803 87.2888 23.6648C86.8795 24.0493 86.6748 24.7191 86.6748 25.6742V30.8093H84.07V20.5019H86.6748V22.102Z" fill="#F8D422"/>
<path d="M100.802 25.4323C100.802 25.8044 100.777 26.1393 100.727 26.437H93.1922C93.2543 27.1813 93.5147 27.7642 93.9737 28.186C94.4326 28.6077 94.997 28.8185 95.6668 28.8185C96.6343 28.8185 97.3227 28.403 97.732 27.572H100.541C100.244 28.5643 99.6732 29.3829 98.8297 30.0279C97.9863 30.6605 96.9506 30.9768 95.7226 30.9768C94.7303 30.9768 93.8372 30.7597 93.0434 30.3256C92.262 29.8791 91.648 29.2527 91.2015 28.4464C90.7673 27.6402 90.5503 26.7099 90.5503 25.6556C90.5503 24.5889 90.7673 23.6524 91.2015 22.8462C91.6356 22.0399 92.2434 21.4197 93.0248 20.9856C93.8062 20.5515 94.7055 20.3344 95.7226 20.3344C96.7025 20.3344 97.5769 20.5453 98.346 20.967C99.1274 21.3887 99.729 21.9903 100.151 22.7717C100.585 23.5408 100.802 24.4276 100.802 25.4323ZM98.1041 24.6881C98.0917 24.0183 97.8498 23.485 97.3785 23.088C96.9071 22.6787 96.3304 22.4741 95.6482 22.4741C95.0032 22.4741 94.4574 22.6725 94.0109 23.0694C93.5768 23.454 93.3101 23.9935 93.2109 24.6881H98.1041Z" fill="#F8D422"/>
<path d="M106.741 28.7441C107.795 28.7441 108.483 28.2728 108.806 27.3301H111.615C111.355 28.3348 110.871 29.1534 110.164 29.786C109.469 30.4186 108.595 30.7969 107.541 30.921V31.6466C108.223 31.6466 108.793 31.8202 109.252 32.1675C109.724 32.5148 109.959 33.0172 109.959 33.6746C109.959 34.3444 109.717 34.8591 109.234 35.2188C108.762 35.5785 108.179 35.7584 107.485 35.7584H104.843V34.2327H107.057C107.355 34.2327 107.578 34.1893 107.727 34.1025C107.888 34.0157 107.969 33.8606 107.969 33.6374C107.969 33.4141 107.888 33.2591 107.727 33.1722C107.578 33.0978 107.355 33.0606 107.057 33.0606H105.903V30.921C105.06 30.7969 104.316 30.5054 103.671 30.0465C103.038 29.5752 102.542 28.9674 102.182 28.2232C101.835 27.4665 101.661 26.6107 101.661 25.6556C101.661 24.5889 101.878 23.6586 102.312 22.8648C102.747 22.0585 103.348 21.4384 104.117 21.0042C104.886 20.5577 105.767 20.3344 106.759 20.3344C108.037 20.3344 109.091 20.6569 109.922 21.3019C110.766 21.9345 111.33 22.8276 111.615 23.9811H108.806C108.657 23.5346 108.403 23.1873 108.043 22.9392C107.696 22.6787 107.261 22.5485 106.741 22.5485C105.996 22.5485 105.407 22.8214 104.973 23.3671C104.539 23.9005 104.322 24.6633 104.322 25.6556C104.322 26.6355 104.539 27.3983 104.973 27.9441C105.407 28.4774 105.996 28.7441 106.741 28.7441Z" fill="#F8D422"/>
<path d="M112.482 25.6184C112.482 24.5765 112.686 23.6524 113.095 22.8462C113.517 22.0399 114.082 21.4197 114.789 20.9856C115.508 20.5515 116.308 20.3344 117.189 20.3344C117.958 20.3344 118.628 20.4895 119.198 20.7996C119.781 21.1097 120.246 21.5004 120.594 21.9717V20.5019H123.217V30.8093H120.594V29.3023C120.259 29.786 119.793 30.1891 119.198 30.5116C118.615 30.8217 117.939 30.9768 117.17 30.9768C116.302 30.9768 115.508 30.7535 114.789 30.307C114.082 29.8604 113.517 29.2341 113.095 28.4278C112.686 27.6092 112.482 26.6727 112.482 25.6184ZM120.594 25.6556C120.594 25.023 120.469 24.4835 120.221 24.0369C119.973 23.578 119.638 23.2307 119.217 22.995C118.795 22.7469 118.342 22.6229 117.858 22.6229C117.375 22.6229 116.928 22.7407 116.519 22.9764C116.11 23.2121 115.775 23.5594 115.514 24.0183C115.266 24.4648 115.142 24.9982 115.142 25.6184C115.142 26.2386 115.266 26.7843 115.514 27.2557C115.775 27.7146 116.11 28.0681 116.519 28.3162C116.941 28.5643 117.387 28.6883 117.858 28.6883C118.342 28.6883 118.795 28.5705 119.217 28.3348C119.638 28.0867 119.973 27.7394 120.221 27.2929C120.469 26.834 120.594 26.2882 120.594 25.6556Z" fill="#F8D422"/>
<path d="M128.235 28.0743L126.059 33.3025H124.384L125.593 28.0743H128.235Z" fill="#F8D422"/>
<path d="M22.3204 45.8116C22.3204 44.7448 22.5375 43.8146 22.9716 43.0207C23.4057 42.2145 24.0073 41.5943 24.7763 41.1602C25.5454 40.7137 26.426 40.4904 27.4183 40.4904C28.6959 40.4904 29.7502 40.8129 30.5812 41.4579C31.4247 42.0905 31.9891 42.9835 32.2743 44.1371H29.4649C29.3161 43.6905 29.0618 43.3432 28.7021 43.0952C28.3548 42.8347 27.9207 42.7044 27.3997 42.7044C26.6555 42.7044 26.0663 42.9773 25.6322 43.5231C25.1981 44.0564 24.981 44.8193 24.981 45.8116C24.981 46.7915 25.1981 47.5543 25.6322 48.1C26.0663 48.6334 26.6555 48.9001 27.3997 48.9001C28.454 48.9001 29.1424 48.4287 29.4649 47.4861H32.2743C31.9891 48.6024 31.4247 49.4893 30.5812 50.1466C29.7378 50.804 28.6835 51.1327 27.4183 51.1327C26.426 51.1327 25.5454 50.9157 24.7763 50.4815C24.0073 50.035 23.4057 49.4148 22.9716 48.621C22.5375 47.8148 22.3204 46.8783 22.3204 45.8116Z" fill="#F8D422"/>
<path d="M38.3874 51.1327C37.3951 51.1327 36.5021 50.9157 35.7082 50.4815C34.9144 50.035 34.288 49.4086 33.8291 48.6024C33.3825 47.7962 33.1593 46.8659 33.1593 45.8116C33.1593 44.7572 33.3887 43.827 33.8477 43.0207C34.319 42.2145 34.9578 41.5943 35.764 41.1602C36.5703 40.7137 37.4695 40.4904 38.4618 40.4904C39.4541 40.4904 40.3534 40.7137 41.1596 41.1602C41.9659 41.5943 42.5985 42.2145 43.0574 43.0207C43.5287 43.827 43.7644 44.7572 43.7644 45.8116C43.7644 46.8659 43.5225 47.7962 43.0388 48.6024C42.5675 49.4086 41.9225 50.035 41.1038 50.4815C40.2976 50.9157 39.3921 51.1327 38.3874 51.1327ZM38.3874 48.8629C38.8588 48.8629 39.2991 48.7512 39.7084 48.528C40.1301 48.2923 40.465 47.945 40.7131 47.4861C40.9612 47.0271 41.0852 46.469 41.0852 45.8116C41.0852 44.8317 40.8247 44.0813 40.3038 43.5603C39.7952 43.0269 39.1688 42.7603 38.4246 42.7603C37.6804 42.7603 37.054 43.0269 36.5455 43.5603C36.0493 44.0813 35.8013 44.8317 35.8013 45.8116C35.8013 46.7915 36.0431 47.5481 36.5269 48.0814C37.023 48.6024 37.6432 48.8629 38.3874 48.8629Z" fill="#F8D422"/>
<path d="M58.1036 40.509C59.3688 40.509 60.3859 40.8997 61.1549 41.6811C61.9363 42.4502 62.327 43.5293 62.327 44.9185V50.9653H59.7223V45.272C59.7223 44.4658 59.5176 43.8518 59.1083 43.4301C58.699 42.9959 58.1408 42.7789 57.4338 42.7789C56.7268 42.7789 56.1624 42.9959 55.7407 43.4301C55.3314 43.8518 55.1267 44.4658 55.1267 45.272V50.9653H52.5219V45.272C52.5219 44.4658 52.3173 43.8518 51.9079 43.4301C51.4986 42.9959 50.9405 42.7789 50.2335 42.7789C49.514 42.7789 48.9435 42.9959 48.5217 43.4301C48.1124 43.8518 47.9078 44.4658 47.9078 45.272V50.9653H45.303V40.6578H47.9078V41.9044C48.2427 41.4703 48.6706 41.1292 49.1915 40.8811C49.7249 40.633 50.3079 40.509 50.9405 40.509C51.7467 40.509 52.4661 40.6826 53.0987 41.0299C53.7313 41.3648 54.2212 41.8486 54.5685 42.4812C54.9034 41.8858 55.3872 41.4083 56.0198 41.0486C56.6648 40.6888 57.3594 40.509 58.1036 40.509Z" fill="#F8D422"/>
<path d="M73.0649 51.1327C72.0726 51.1327 71.1795 50.9157 70.3857 50.4815C69.5919 50.035 68.9655 49.4086 68.5065 48.6024C68.06 47.7962 67.8367 46.8659 67.8367 45.8116C67.8367 44.7572 68.0662 43.827 68.5251 43.0207C68.9965 42.2145 69.6353 41.5943 70.4415 41.1602C71.2477 40.7137 72.147 40.4904 73.1393 40.4904C74.1316 40.4904 75.0309 40.7137 75.8371 41.1602C76.6433 41.5943 77.2759 42.2145 77.7349 43.0207C78.2062 43.827 78.4419 44.7572 78.4419 45.8116C78.4419 46.8659 78.2 47.7962 77.7162 48.6024C77.2449 49.4086 76.5999 50.035 75.7813 50.4815C74.975 50.9157 74.0696 51.1327 73.0649 51.1327ZM73.0649 48.8629C73.5362 48.8629 73.9765 48.7512 74.3859 48.528C74.8076 48.2923 75.1425 47.945 75.3906 47.4861C75.6386 47.0271 75.7627 46.469 75.7627 45.8116C75.7627 44.8317 75.5022 44.0813 74.9812 43.5603C74.4727 43.0269 73.8463 42.7603 73.1021 42.7603C72.3579 42.7603 71.7315 43.0269 71.2229 43.5603C70.7268 44.0813 70.4787 44.8317 70.4787 45.8116C70.4787 46.7915 70.7206 47.5481 71.2043 48.0814C71.7005 48.6024 72.3207 48.8629 73.0649 48.8629Z" fill="#F8D422"/>
<path d="M76.3669 62.1596C76.3669 62.7798 76.3255 63.3379 76.2428 63.8341H63.6841C63.7875 65.0745 64.2216 66.0461 64.9865 66.749C65.7514 67.4518 66.692 67.8033 67.8083 67.8033C69.4208 67.8033 70.5682 67.1107 71.2504 65.7257H75.9327C75.4366 67.3795 74.4856 68.7439 73.0799 69.8189C71.6741 70.8732 69.948 71.4003 67.9014 71.4003C66.2475 71.4003 64.7591 71.0386 63.436 70.315C62.1337 69.5708 61.1104 68.5268 60.3661 67.1831C59.6426 65.8394 59.2808 64.2889 59.2808 62.5317C59.2808 60.7538 59.6426 59.1931 60.3661 57.8493C61.0897 56.5056 62.1026 55.472 63.405 54.7484C64.7074 54.0249 66.2062 53.6631 67.9014 53.6631C69.5345 53.6631 70.9919 54.0145 72.2737 54.7174C73.576 55.4203 74.5787 56.4229 75.2815 57.7253C76.0051 59.007 76.3669 60.4851 76.3669 62.1596ZM71.8705 60.9192C71.8499 59.8029 71.4467 58.914 70.6612 58.2524C69.8756 57.5702 68.9143 57.2291 67.7773 57.2291C66.7023 57.2291 65.7927 57.5599 65.0485 58.2214C64.325 58.8623 63.8805 59.7616 63.7151 60.9192H71.8705Z" fill="#F8D422"/>
<path d="M86.7918 57.5082H83.7839V71.1212H79.3806V57.5082H77.427V53.9422H79.3806V53.0739C79.3806 50.9653 79.9801 49.4148 81.1791 48.4225C82.3781 47.4302 84.187 46.9651 86.6057 47.0271V50.6862C85.5514 50.6655 84.8175 50.8413 84.4041 51.2134C83.9906 51.5855 83.7839 52.2573 83.7839 53.229V53.9422H86.7918V57.5082Z" fill="#F8D422"/>
<path d="M104.955 62.1596C104.955 62.7798 104.913 63.3379 104.831 63.8341H92.2719C92.3753 65.0745 92.8094 66.0461 93.5743 66.749C94.3392 67.4518 95.2798 67.8033 96.3961 67.8033C98.0086 67.8033 99.1559 67.1107 99.8381 65.7257H104.521C104.024 67.3795 103.073 68.7439 101.668 69.8189C100.262 70.8732 98.5358 71.4003 96.4892 71.4003C94.8353 71.4003 93.3469 71.0386 92.0238 70.315C90.7214 69.5708 89.6981 68.5268 88.9539 67.1831C88.2304 65.8394 87.8686 64.2889 87.8686 62.5317C87.8686 60.7538 88.2304 59.1931 88.9539 57.8493C89.6775 56.5056 90.6904 55.472 91.9928 54.7484C93.2952 54.0249 94.794 53.6631 96.4892 53.6631C98.1223 53.6631 99.5797 54.0145 100.861 54.7174C102.164 55.4203 103.166 56.4229 103.869 57.7253C104.593 59.007 104.955 60.4851 104.955 62.1596ZM100.458 60.9192C100.438 59.8029 100.035 58.914 99.249 58.2524C98.4634 57.5702 97.5021 57.2291 96.3651 57.2291C95.2901 57.2291 94.3805 57.5599 93.6363 58.2214C92.9128 58.8623 92.4683 59.7616 92.3029 60.9192H100.458Z" fill="#F8D422"/>
<path d="M109.705 51.8956C108.94 51.8956 108.299 51.6578 107.782 51.1824C107.286 50.6862 107.038 50.0764 107.038 49.3528C107.038 48.6293 107.286 48.0298 107.782 47.5543C108.299 47.0581 108.94 46.8101 109.705 46.8101C110.47 46.8101 111.1 47.0581 111.596 47.5543C112.113 48.0298 112.372 48.6293 112.372 49.3528C112.372 50.0764 112.113 50.6862 111.596 51.1824C111.1 51.6578 110.47 51.8956 109.705 51.8956ZM111.845 53.9422V71.1212H107.503V53.9422H111.845Z" fill="#F8D422"/>
<path d="M120.568 57.5082V65.8187C120.568 66.3975 120.702 66.8213 120.971 67.0901C121.261 67.3381 121.736 67.4622 122.398 67.4622H124.413V71.1212H121.684C118.025 71.1212 116.196 69.3434 116.196 65.7877V57.5082H114.149V53.9422H116.196V49.6939H120.568V53.9422H124.413V57.5082H120.568Z" fill="#F8D422"/>
<path d="M134.544 71.4003C132.89 71.4003 131.401 71.0386 130.078 70.315C128.755 69.5708 127.711 68.5268 126.946 67.1831C126.202 65.8394 125.83 64.2889 125.83 62.5317C125.83 60.7745 126.213 59.2241 126.977 57.8803C127.763 56.5366 128.828 55.503 130.171 54.7794C131.515 54.0352 133.014 53.6631 134.668 53.6631C136.322 53.6631 137.82 54.0352 139.164 54.7794C140.508 55.503 141.562 56.5366 142.327 57.8803C143.113 59.2241 143.505 60.7745 143.505 62.5317C143.505 64.2889 143.102 65.8394 142.296 67.1831C141.51 68.5268 140.435 69.5708 139.071 70.315C137.727 71.0386 136.218 71.4003 134.544 71.4003ZM134.544 67.6172C135.329 67.6172 136.063 67.4312 136.745 67.059C137.448 66.6663 138.006 66.0874 138.42 65.3225C138.833 64.5576 139.04 63.6274 139.04 62.5317C139.04 60.8986 138.606 59.6479 137.738 58.7796C136.89 57.8907 135.846 57.4462 134.606 57.4462C133.365 57.4462 132.321 57.8907 131.474 58.7796C130.647 59.6479 130.233 60.8986 130.233 62.5317C130.233 64.1649 130.637 65.4259 131.443 66.3148C132.27 67.1831 133.303 67.6172 134.544 67.6172Z" fill="#F8D422"/>
<path d="M12.0642 112.306C11.9301 117.431 15.0132 118.568 18.2928 118.568C21.5725 118.568 24.3875 117.04 24.3875 113.843C24.3875 111.445 22.913 109.446 18.4269 109.446C7.30105 109.446 0 103.052 0 92.8645C0 82.6774 8.17682 76.0162 18.4269 76.0162C20.7057 76.0162 23.047 76.487 25.2633 77.2774C26.3982 75.812 27.7386 74.1511 28.811 72.7478L37.7206 79.0715L33.4311 84.1339C35.844 86.7984 36.7108 90.0579 36.5768 92.9888C36.5142 97.1187 34.3695 101.178 30.5447 103.913C36.6393 107.377 37.0415 112.04 37.0415 113.834C37.0415 124.492 27.7297 128.488 18.2839 128.488C6.43422 128.488 -0.196601 122.36 0.464694 112.306H12.0642ZM12.0016 92.8645C12.0016 96.7901 14.8166 99.3213 18.4358 99.3213C21.7155 99.3213 24.6645 97.2608 24.6645 92.8645C24.6645 89.1342 22.0551 86.0701 18.4358 86.0701C14.8166 86.0701 12.0016 88.4681 12.0016 92.8645Z" fill="white"/>
<path d="M50.1959 77.082L50.9287 80.679C52.6713 77.6149 55.7543 76.2827 58.9714 76.2827C62.1885 76.2827 65.5397 77.5439 67.6844 79.8086L62.7247 88.6635C60.714 87.0648 59.2395 86.6652 57.1663 86.6652C54.0832 86.6652 51.4738 88.5303 51.4738 92.8556V109.97H39.1415V77.082H50.1959Z" fill="white"/>
<path d="M101.991 93.5928C101.991 105.583 92.4115 110.77 83.0998 110.77C73.788 110.77 64.1992 105.574 64.1992 93.5928C64.1992 81.6116 73.511 76.3448 83.0998 76.3448C92.6885 76.3448 101.991 81.6027 101.991 93.5928ZM89.9272 93.5928C89.9272 89.8003 87.4518 86.3987 83.0908 86.3987C78.7299 86.3987 76.2545 89.7915 76.2545 93.5928C76.2545 97.394 78.7299 100.716 83.0908 100.716C87.4518 100.716 89.9272 97.5894 89.9272 93.5928Z" fill="white"/>
<path d="M130.811 77.082L136.638 95.3957L139.113 86.0701L142.196 77.082H155.127L143.001 110.183H131.678L127.058 97.7315L122.5 110.183H111.044L98.9798 77.082H111.848L114.994 86.1412L117.541 95.3957L123.367 77.082H130.811Z" fill="white"/>
<path d="M161.839 97.2608C171.356 97.2608 171.418 110.317 161.839 110.317C152.259 110.317 152.455 97.2608 161.839 97.2608ZM155.672 94.6674L155.467 63.369H168.469L168.201 94.6674H155.672Z" fill="white"/>
<path d="M69.1679 116.152H69.999V122.618H69.1858V121.339C68.6228 122.298 67.5772 122.751 66.6031 122.751C64.7622 122.751 63.2877 121.445 63.2877 119.385C63.2877 117.324 64.7801 116.063 66.621 116.063C67.6219 116.063 68.6853 116.525 69.1768 117.44V116.161L69.1679 116.152ZM64.1635 119.385C64.1635 120.912 65.2716 121.925 66.6389 121.925C69.999 121.925 69.999 116.862 66.6389 116.862C65.2716 116.862 64.1635 117.866 64.1635 119.385Z" fill="white"/>
<path d="M78.0507 115.708L78.6584 116.205L77.9613 117.031C78.4528 117.564 78.8281 118.141 78.8281 119.18C78.8281 120.317 78.1937 121.507 76.8621 121.889C78.0864 122.218 78.7835 122.937 78.7835 124.012C78.7835 125.637 77.166 126.472 75.4412 126.472C73.5825 126.472 72.1348 125.486 72.1437 123.799H73.0284C73.0195 125.016 74.1991 125.619 75.4412 125.619C76.6834 125.619 77.8898 125.158 77.8898 124.012C77.8898 122.866 76.6477 122.36 75.4412 122.36C73.4395 122.36 72.0275 121.196 72.0275 119.18C72.0275 117.164 73.8059 116.001 75.4412 116.001C76.0579 116.001 76.88 116.187 77.3626 116.525L78.0507 115.717V115.708ZM72.9301 119.18C72.9301 120.779 74.0382 121.552 75.4412 121.552C76.9426 121.552 77.9434 120.468 77.9434 119.18C77.9434 117.573 76.7192 116.827 75.4412 116.827C74.2438 116.827 72.9301 117.564 72.9301 119.18Z" fill="white"/>
<path d="M87.0318 119.758H81.3661C81.4823 121.108 82.5368 121.907 83.8325 121.907C84.6189 121.907 85.5751 121.596 86.0309 121.019L86.6207 121.543C85.9773 122.342 84.8513 122.751 83.8325 122.751C81.8933 122.751 80.4635 121.454 80.4635 119.385C80.4635 117.449 81.8576 116.045 83.7968 116.045C85.736 116.045 87.2909 117.209 87.0407 119.767L87.0318 119.758ZM81.3661 119.012H86.2007C86.1739 117.599 85.1104 116.827 83.8057 116.827C82.501 116.827 81.5359 117.608 81.3661 119.012ZM83.6806 113.407L81.7861 115.148V115.237H82.7244L83.9934 114.1L85.2624 115.237H86.2007V115.148L84.3151 113.407H83.6806Z" fill="white"/>
<path d="M94.1273 122.626V119.003C94.1273 117.617 93.3141 116.88 92.0094 116.88C90.7404 116.889 89.8736 117.866 89.8736 119.109V122.626H88.9889V116.161H89.8289L89.8557 117.244C90.3919 116.418 91.2408 116.054 92.1255 116.054C93.8145 116.054 95.0209 117.049 95.0209 118.985V122.626H94.1273Z" fill="white"/>
<path d="M102.778 121.756C102.09 122.422 101.241 122.742 100.356 122.742C98.4972 122.742 96.9691 121.507 96.9691 119.394C96.9691 117.28 98.4615 116.054 100.356 116.054C101.223 116.054 101.991 116.356 102.671 117.013L102.09 117.573C101.589 117.102 100.999 116.88 100.365 116.88C98.9798 116.88 97.8448 117.813 97.8448 119.394C97.8448 120.974 98.9887 121.907 100.347 121.907C101.008 121.907 101.661 121.658 102.161 121.17L102.769 121.756H102.778Z" fill="white"/>
<path d="M105.664 114.127C105.664 114.953 104.413 114.953 104.413 114.127C104.413 113.301 105.664 113.301 105.664 114.127ZM104.583 116.134V122.626H105.468V116.134H104.583Z" fill="white"/>
<path d="M113.376 116.152H114.207V122.618H113.394V121.339C112.831 122.298 111.786 122.751 110.812 122.751C108.971 122.751 107.496 121.445 107.496 119.385C107.496 117.324 108.989 116.063 110.829 116.063C111.83 116.063 112.894 116.525 113.385 117.44V116.161L113.376 116.152ZM108.372 119.385C108.372 120.912 109.48 121.925 110.847 121.925C114.207 121.925 114.207 116.862 110.847 116.862C109.48 116.862 108.372 117.866 108.372 119.385Z" fill="white"/>
<path d="M125.869 121.756C125.181 122.422 124.332 122.742 123.448 122.742C121.589 122.742 120.061 121.507 120.061 119.394C120.061 117.28 121.553 116.054 123.448 116.054C124.315 116.054 125.083 116.356 125.762 117.013L125.181 117.573C124.681 117.102 124.091 116.88 123.457 116.88C122.071 116.88 120.937 117.813 120.937 119.394C120.937 120.974 122.08 121.907 123.439 121.907C124.1 121.907 124.752 121.658 125.253 121.17L125.861 121.756H125.869Z" fill="white"/>
<path d="M128.506 116.152L128.559 117.209C128.979 116.347 129.846 116.045 130.624 116.045C131.213 116.045 131.625 116.178 132.098 116.507L131.687 117.244C131.356 117.022 130.99 116.907 130.57 116.907C129.453 116.916 128.55 117.768 128.55 118.949V122.626H127.666V116.161H128.497L128.506 116.152Z" fill="white"/>
<path d="M134.654 114.127C134.654 114.953 133.403 114.953 133.403 114.127C133.403 113.301 134.654 113.301 134.654 114.127ZM133.573 116.134V122.626H134.457V116.134H133.573Z" fill="white"/>
<path d="M142.375 116.152H143.206V122.618H142.393V121.339C141.83 122.298 140.784 122.751 139.81 122.751C137.969 122.751 136.495 121.445 136.495 119.385C136.495 117.324 137.987 116.063 139.828 116.063C140.829 116.063 141.892 116.525 142.384 117.44V116.161L142.375 116.152ZM137.371 119.385C137.371 120.912 138.479 121.925 139.846 121.925C143.206 121.925 143.206 116.862 139.846 116.862C138.479 116.862 137.371 117.866 137.371 119.385Z" fill="white"/>
<path d="M147.29 114.242V116.17H149.399V116.916H147.29V120.566C147.29 121.374 147.513 121.916 148.398 121.916C148.702 121.916 149.033 121.809 149.345 121.667L149.622 122.404C149.202 122.6 148.791 122.715 148.371 122.715C146.977 122.724 146.405 121.916 146.405 120.566V116.916H145.074V116.17H146.405V114.34L147.29 114.251V114.242Z" fill="white"/>
<path d="M152.286 114.127C152.286 114.953 151.034 114.953 151.034 114.127C151.034 113.301 152.286 113.301 152.286 114.127ZM151.204 116.134V122.626H152.089V116.134H151.204Z" fill="white"/>
<path d="M160.382 116.152L157.638 122.635H156.664L153.921 116.152H154.895L157.147 121.667L159.399 116.152H160.382Z" fill="white"/>
<path d="M167.388 116.152H168.219V122.618H167.406V121.339C166.843 122.298 165.797 122.751 164.823 122.751C162.982 122.751 161.508 121.445 161.508 119.385C161.508 117.324 163 116.063 164.841 116.063C165.842 116.063 166.905 116.525 167.397 117.44V116.161L167.388 116.152ZM162.384 119.385C162.384 120.912 163.492 121.925 164.859 121.925C168.219 121.925 168.219 116.862 164.859 116.862C163.492 116.862 162.384 117.866 162.384 119.385Z" fill="white"/>
</svg>
