<svg width="33" height="33" viewBox="0 0 33 33" fill="none" xmlns="http://www.w3.org/2000/svg">
<path d="M28.2572 5.29457C26.7497 3.7935 25.0252 2.64496 23.0838 1.84894C21.1651 1.05292 19.1323 0.654907 16.9853 0.654907C14.1073 0.654907 11.4349 1.3827 8.96814 2.83828C6.54701 4.22563 4.6398 6.1247 3.24651 8.5355C1.7847 10.9918 1.05379 13.6528 1.05379 16.5184C1.05379 19.3159 1.76186 21.9541 3.17799 24.4332L0.916748 32.6549L9.37928 30.4715C11.7319 31.7452 14.2672 32.382 16.9853 32.382C19.8632 32.382 22.547 31.6656 25.0367 30.2327C27.435 28.8226 29.3422 26.9236 30.7583 24.5355C32.1973 22.0565 32.9167 19.3841 32.9167 16.5184C32.9167 14.4033 32.517 12.3791 31.7176 10.446C30.9182 8.51276 29.7647 6.79563 28.2572 5.29457ZM16.9853 29.721C14.6098 29.721 12.36 29.1069 10.2358 27.8788L9.75615 27.6059L4.75401 28.9022L6.0902 24.0238L5.78184 23.5462C4.43424 21.4083 3.76043 19.0657 3.76043 16.5184C3.76043 14.1304 4.36571 11.9129 5.57628 9.86599C6.74116 7.86457 8.31718 6.2839 10.3043 5.12399C12.36 3.91859 14.587 3.31589 16.9853 3.31589C18.7669 3.33863 20.4571 3.67978 22.0559 4.33934C23.6776 4.9989 25.1166 5.95412 26.3729 7.20501C27.6291 8.4559 28.5884 9.88874 29.2508 11.5035C29.9132 13.0956 30.2444 14.7672 30.2444 16.5184C30.2444 18.9065 29.6391 21.124 28.4285 23.1709C27.2636 25.1723 25.6762 26.753 23.6662 27.9129C21.6105 29.1183 19.3836 29.721 16.9853 29.721ZM24.2487 19.8276C24.0202 19.7139 23.5749 19.4865 22.9125 19.1453C22.1816 18.8042 21.7247 18.5995 21.542 18.5312C21.3136 18.463 21.1537 18.4403 21.0624 18.463C20.9025 18.4858 20.7654 18.5767 20.6512 18.7359C20.4228 19.0998 20.0003 19.6229 19.3836 20.3052C19.2694 20.4417 19.1437 20.5213 19.0067 20.544C18.8696 20.544 18.7098 20.4985 18.527 20.4076L18.2529 20.2711C17.1566 19.7935 16.1744 19.1794 15.3065 18.4289C14.5756 17.7693 13.8561 16.8823 13.148 15.7679L13.1138 15.6997C13.0224 15.5405 12.9995 15.3926 13.0452 15.2562C13.0681 15.1652 13.1366 15.0629 13.2508 14.9492L13.5934 14.4715C13.9817 13.9712 14.2101 13.6528 14.2786 13.5163C14.3928 13.3116 14.3814 13.0842 14.2444 12.834L13.011 9.90011C12.8968 9.5817 12.7597 9.37701 12.5998 9.28604C12.5085 9.24055 12.3714 9.21781 12.1887 9.21781H12.1202C11.9603 9.19506 11.709 9.18369 11.3664 9.18369C10.9553 9.18369 10.6013 9.35427 10.3043 9.69542L10.2701 9.72953C9.90461 10.0934 9.63052 10.446 9.4478 10.7871C9.08234 11.4467 8.89962 12.1858 8.89962 13.0046C8.89962 14.1872 9.40212 15.5064 10.4071 16.9619L10.5784 17.2008C11.2408 18.1332 11.9603 18.9975 12.7369 19.7935C14.1987 21.2946 15.729 22.3863 17.3279 23.0686C17.8761 23.296 18.5499 23.5575 19.3493 23.8532L19.5891 23.9214C20.32 24.1489 21.1537 24.1944 22.0902 24.0579C22.5242 23.9897 23.0267 23.7736 23.5977 23.4097C24.2372 23.0231 24.6369 22.6251 24.7968 22.2157C24.9567 21.7836 25.0481 21.3628 25.0709 20.9534C25.1166 20.6123 25.1052 20.3962 25.0367 20.3052C24.991 20.2143 24.8083 20.0892 24.4885 19.93L24.2487 19.8276Z" fill="white"/>
</svg>
